<svg xmlns="http://www.w3.org/2000/svg" xmlns:xlink="http://www.w3.org/1999/xlink" width="227.474" height="74.172" viewBox="0 0 227.474 74.172">
  <defs>
    <clipPath id="clip-path">
      <path id="Trazado_150" data-name="Trazado 150" d="M124,1057.351a7.463,7.463,0,0,1,14.925,0,7.463,7.463,0,0,1-14.925,0m-23.288,1.621c0-1.77.885-3.584,2.234-6.15l13.216-25.2c1.271-2.42,3.006-5.735,6.655-5.735a5.7,5.7,0,0,1,5.938,5.843c0,1.769-.884,3.584-2.234,6.15l-13.212,25.2c-1.27,2.422-3.009,5.735-6.655,5.735a5.7,5.7,0,0,1-5.941-5.841m11.579-46.82a15.614,15.614,0,0,1-1.388,1.4,16.11,16.11,0,0,1-9.68,3.587l-.412-.011a9.807,9.807,0,0,0-9.668,9.115,16.143,16.143,0,0,1-5.764,11.375,9.756,9.756,0,0,0-4.172,8.057,10.171,10.171,0,0,0,3.974,8.041,16.173,16.173,0,0,1,6.06,11.386,10.442,10.442,0,0,0,10.158,9.255,15.885,15.885,0,0,1,10.2,4.041q.527.5,1.011,1.031a9.43,9.43,0,0,0,7.252,3.4,9.949,9.949,0,0,0,7.483-3.5,15.716,15.716,0,0,1,1.391-1.4,16.138,16.138,0,0,1,9.684-3.585l.408.012a9.8,9.8,0,0,0,9.666-9.117,16.137,16.137,0,0,1,5.767-11.374,9.779,9.779,0,0,0,4.173-8.058,10.191,10.191,0,0,0-3.977-8.04,16.173,16.173,0,0,1-6.06-11.386,10.435,10.435,0,0,0-10.16-9.253,15.894,15.894,0,0,1-10.193-4.045c-.355-.328-.691-.675-1.013-1.028a9.427,9.427,0,0,0-7.25-3.4,9.963,9.963,0,0,0-7.487,3.5" transform="translate(-81.206 -1008.653)" fill="#fff"/>
    </clipPath>
    <linearGradient id="linear-gradient" x1="-0.663" y1="1.63" x2="-0.655" y2="1.63" gradientUnits="objectBoundingBox">
      <stop offset="0" stop-color="#90ba1e"/>
      <stop offset="0.452" stop-color="#87b31e"/>
      <stop offset="1" stop-color="#548921"/>
    </linearGradient>
  </defs>
  <g id="logo_aapresid_01" transform="translate(-142 -27.171)">
    <g id="Grupo_7" data-name="Grupo 7" transform="translate(142 27.171)">
      <g id="Grupo_6" data-name="Grupo 6" clip-path="url(#clip-path)">
        <rect id="Rectángulo_567" data-name="Rectángulo 567" width="77.223" height="74.172" fill="url(#linear-gradient)"/>
      </g>
    </g>
    <g id="Grupo_9" data-name="Grupo 9" transform="translate(231.701 37.547)">
      <g id="Grupo_8" data-name="Grupo 8" transform="translate(0)">
        <path id="Trazado_151" data-name="Trazado 151" d="M225.418,1036.8v-.064a11.29,11.29,0,0,1,11.232-11.615,11.732,11.732,0,0,1,8.247,3.145.959.959,0,0,1,.321.673.878.878,0,0,1-.867.835.854.854,0,0,1-.577-.226,10.032,10.032,0,0,0-7.156-2.921c-5.391,0-9.466,4.4-9.466,10.045v.064c0,5.68,4.139,10.109,9.5,10.109a9.888,9.888,0,0,0,7.316-3.113.817.817,0,0,1,.578-.258.839.839,0,0,1,.8.8.815.815,0,0,1-.257.578,11.635,11.635,0,0,1-8.5,3.5c-6.418,0-11.167-5.1-11.167-11.553" transform="translate(-224.231 -1025.117)" fill="#3c3c3b"/>
        <path id="Trazado_152" data-name="Trazado 152" d="M274.292,1043.421v-.064a6.861,6.861,0,0,0-6.739-7.092,6.752,6.752,0,0,0-6.674,7.028v.064a6.861,6.861,0,0,0,6.739,7.092,6.752,6.752,0,0,0,6.674-7.028m-15.114,0v-.064a8.456,8.456,0,0,1,8.44-8.568,8.369,8.369,0,0,1,8.375,8.5v.064a8.456,8.456,0,0,1-8.44,8.568,8.368,8.368,0,0,1-8.375-8.5" transform="translate(-236.714 -1028.693)" fill="#3c3c3b"/>
        <path id="Trazado_153" data-name="Trazado 153" d="M291.006,1035.849a.786.786,0,1,1,1.572,0v2.375a6.406,6.406,0,0,1,5.9-3.434c4.139,0,6.546,2.825,6.546,6.739v9.339a.75.75,0,0,1-.77.8.775.775,0,0,1-.8-.8v-9.05c0-3.37-1.893-5.583-5.2-5.583a5.61,5.61,0,0,0-5.68,5.84v8.792a.75.75,0,0,1-.77.8.775.775,0,0,1-.8-.8Z" transform="translate(-248.482 -1028.694)" fill="#3c3c3b"/>
        <path id="Trazado_154" data-name="Trazado 154" d="M332.787,1042.589v-.065c0-3.786-3.369-6.225-6.771-6.225a6.049,6.049,0,0,0-6.322,6.193v.064a6.217,6.217,0,0,0,6.322,6.258c3.4,0,6.771-2.5,6.771-6.225m-13.7,11.9a.853.853,0,0,1-.354-.706.832.832,0,0,1,.8-.738.925.925,0,0,1,.449.129,10.426,10.426,0,0,0,6.29,2.086c3.754,0,6.418-2.15,6.418-6.354v-2.375a8.14,8.14,0,0,1-6.835,3.787,7.75,7.75,0,0,1-7.862-7.7v-.066a7.784,7.784,0,0,1,7.862-7.765,8.139,8.139,0,0,1,6.835,3.658v-2.6a.768.768,0,0,1,.77-.8.8.8,0,0,1,.8.8v13.157a7.583,7.583,0,0,1-2.085,5.552,8.284,8.284,0,0,1-5.937,2.181,12.362,12.362,0,0,1-7.156-2.246" transform="translate(-258.461 -1028.694)" fill="#3c3c3b"/>
        <path id="Trazado_155" data-name="Trazado 155" d="M350.736,1035.925a.786.786,0,1,1,1.572,0v3.979c1.411-3.177,4.267-4.909,6.578-4.909a.835.835,0,0,1,.834.865.855.855,0,0,1-.834.867c-3.466.321-6.578,2.921-6.578,8.182v6.033a.786.786,0,1,1-1.572,0Z" transform="translate(-270.568 -1028.769)" fill="#3c3c3b"/>
        <path id="Trazado_156" data-name="Trazado 156" d="M379.076,1042.589c-.225-3.306-2.118-6.354-5.873-6.354-3.241,0-5.743,2.728-6.032,6.354Zm-5.551,9.338c-4.3,0-8.023-3.434-8.023-8.536v-.064c0-4.749,3.338-8.536,7.766-8.536,4.589,0,7.509,3.787,7.509,8.472a.8.8,0,0,1-.77.737H367.172c.289,4.075,3.209,6.45,6.418,6.45a7.242,7.242,0,0,0,5.294-2.246.7.7,0,0,1,.514-.225.754.754,0,0,1,.77.737.772.772,0,0,1-.257.547,8.319,8.319,0,0,1-6.385,2.663" transform="translate(-276.027 -1028.694)" fill="#3c3c3b"/>
        <path id="Trazado_157" data-name="Trazado 157" d="M392.627,1049.781a.847.847,0,0,1-.289-.609.781.781,0,0,1,.77-.769.89.89,0,0,1,.514.16,9.185,9.185,0,0,0,5.455,1.862c2.213,0,3.947-1.22,3.947-3.113v-.064c0-1.926-2.054-2.633-4.332-3.274-2.663-.77-5.615-1.572-5.615-4.493v-.064c0-2.631,2.215-4.524,5.391-4.524a11.162,11.162,0,0,1,5.295,1.476.848.848,0,0,1,.418.707.781.781,0,0,1-.771.77.833.833,0,0,1-.449-.128,9.053,9.053,0,0,0-4.557-1.348c-2.246,0-3.722,1.22-3.722,2.856v.064c0,1.829,2.214,2.5,4.557,3.176,2.631.739,5.391,1.7,5.391,4.589v.064c0,2.92-2.5,4.782-5.648,4.782a11.244,11.244,0,0,1-6.353-2.119" transform="translate(-285.95 -1028.732)" fill="#3c3c3b"/>
        <path id="Trazado_158" data-name="Trazado 158" d="M430.57,1043.421v-.064a6.861,6.861,0,0,0-6.739-7.092,6.752,6.752,0,0,0-6.674,7.028v.064a6.861,6.861,0,0,0,6.739,7.092,6.752,6.752,0,0,0,6.674-7.028m-15.114,0v-.064a8.456,8.456,0,0,1,8.44-8.568,8.369,8.369,0,0,1,8.375,8.5v.064a8.456,8.456,0,0,1-8.44,8.568,8.368,8.368,0,0,1-8.375-8.5" transform="translate(-294.498 -1028.693)" fill="#3c3c3b"/>
        <path id="Trazado_159" data-name="Trazado 159" d="M237.718,1087.078l-3.112-7.414-3.113,7.414Zm-13.894,6.225,7.83-17.682a3.053,3.053,0,0,1,2.888-1.956h.289a3.012,3.012,0,0,1,2.857,1.956l7.829,17.682a2.408,2.408,0,0,1,.257.995,2.342,2.342,0,0,1-2.343,2.374,2.515,2.515,0,0,1-2.374-1.7l-1.509-3.53h-9.883l-1.572,3.69a2.426,2.426,0,0,1-2.278,1.54,2.273,2.273,0,0,1-2.278-2.31,2.618,2.618,0,0,1,.289-1.059" transform="translate(-223.534 -1043.068)" fill="#3c3c3b"/>
        <path id="Trazado_160" data-name="Trazado 160" d="M271.193,1093.6v-.865a7.55,7.55,0,0,0-3.113-.643c-2.085,0-3.369.835-3.369,2.375v.064c0,1.316,1.091,2.086,2.663,2.086,2.278,0,3.819-1.251,3.819-3.017m-11.2,1.123v-.064c0-3.754,2.856-5.487,6.931-5.487a12.207,12.207,0,0,1,4.2.707v-.289c0-2.022-1.252-3.145-3.691-3.145a11.215,11.215,0,0,0-3.369.481,2.069,2.069,0,0,1-.705.128,1.986,1.986,0,0,1-2.022-1.989,2.022,2.022,0,0,1,1.316-1.894,14.973,14.973,0,0,1,5.487-.9c2.663,0,4.589.706,5.808,1.926a7.5,7.5,0,0,1,1.86,5.488v7.829a2.341,2.341,0,0,1-2.374,2.341,2.184,2.184,0,0,1-2.343-2.022v-.032a6.611,6.611,0,0,1-5.2,2.184c-3.24,0-5.9-1.862-5.9-5.265" transform="translate(-237.015 -1046.249)" fill="#3c3c3b"/>
        <path id="Trazado_161" data-name="Trazado 161" d="M302.411,1091.017v-.064c0-2.855-1.925-4.749-4.2-4.749s-4.172,1.894-4.172,4.749v.064c0,2.857,1.893,4.75,4.172,4.75s4.2-1.861,4.2-4.75m-13.189-6.385a2.439,2.439,0,1,1,4.878,0v.224a6.315,6.315,0,0,1,5.358-2.791c4.012,0,7.83,3.144,7.83,8.888v.064c0,5.745-3.754,8.89-7.83,8.89a6.607,6.607,0,0,1-5.358-2.567v5.135a2.439,2.439,0,0,1-4.878,0Z" transform="translate(-247.822 -1046.174)" fill="#3c3c3b"/>
        <path id="Trazado_162" data-name="Trazado 162" d="M321.048,1084.707a2.438,2.438,0,1,1,4.877,0v.77c.707-1.668,1.862-3.209,3.306-3.209a2.357,2.357,0,0,1,.546,4.653c-2.471.577-3.851,2.471-3.851,5.937v4.557a2.438,2.438,0,0,1-4.877,0Z" transform="translate(-259.59 -1046.249)" fill="#3c3c3b"/>
        <path id="Trazado_163" data-name="Trazado 163" d="M349.829,1089.638c-.289-2.182-1.572-3.659-3.626-3.659-2.022,0-3.337,1.445-3.722,3.659Zm-3.144,10.333a8.6,8.6,0,0,1-8.985-8.89v-.064c0-4.908,3.5-8.952,8.5-8.952a8.131,8.131,0,0,1,8.28,8.279,2.225,2.225,0,0,1-2.278,2.343h-9.659a3.989,3.989,0,0,0,4.2,3.369,5.634,5.634,0,0,0,3.466-1.155,1.818,1.818,0,0,1,1.187-.385,1.865,1.865,0,0,1,1.893,1.925,1.919,1.919,0,0,1-.642,1.444,8.917,8.917,0,0,1-5.969,2.086" transform="translate(-265.747 -1046.174)" fill="#3c3c3b"/>
        <path id="Trazado_164" data-name="Trazado 164" d="M366.433,1097.986a1.945,1.945,0,0,1-.931-1.668,1.89,1.89,0,0,1,1.926-1.925,1.871,1.871,0,0,1,.962.256,9.064,9.064,0,0,0,4.654,1.54c1.412,0,2.054-.514,2.054-1.283v-.064c0-1.058-1.669-1.412-3.562-1.989-2.407-.707-5.135-1.83-5.135-5.167v-.063c0-3.5,2.824-5.456,6.289-5.456a12.089,12.089,0,0,1,5.327,1.317,1.984,1.984,0,0,1,1.155,1.828,1.918,1.918,0,0,1-1.957,1.926,1.77,1.77,0,0,1-.9-.225,9.176,9.176,0,0,0-3.722-1.091c-1.187,0-1.8.513-1.8,1.188v.064c0,.962,1.637,1.412,3.5,2.053,2.407.8,5.2,1.958,5.2,5.1v.064c0,3.818-2.856,5.551-6.578,5.551a11.992,11.992,0,0,1-6.482-1.958" transform="translate(-276.027 -1046.211)" fill="#3c3c3b"/>
        <path id="Trazado_165" data-name="Trazado 165" d="M390.9,1081.073a2.439,2.439,0,1,1,4.877,0v12.708a2.439,2.439,0,0,1-4.877,0Zm-.289-6.353c0-1.412,1.187-2.279,2.728-2.279s2.728.867,2.728,2.279v.064a2.766,2.766,0,0,1-5.455,0Z" transform="translate(-285.31 -1042.615)" fill="#3c3c3b"/>
        <path id="Trazado_166" data-name="Trazado 166" d="M407.2,1087.376v.064c0,2.857,1.925,4.75,4.2,4.75s4.171-1.893,4.171-4.75v-.064c0-2.856-1.893-4.749-4.171-4.749s-4.2,1.862-4.2,4.749m13.188,6.386a2.439,2.439,0,0,1-4.877,0v-.225a6.318,6.318,0,0,1-5.359,2.792c-4.011,0-7.83-3.144-7.83-8.89v-.064c0-5.744,3.754-8.889,7.83-8.889a6.606,6.606,0,0,1,5.359,2.567v-6.225a2.439,2.439,0,1,1,4.877,0Z" transform="translate(-289.64 -1042.597)" fill="#3c3c3b"/>
      </g>
    </g>
  </g>
</svg>
