<?xml version="1.0" encoding="utf-8"?>
<!-- Generator: Adobe Illustrator 25.0.1, SVG Export Plug-In . SVG Version: 6.00 Build 0)  -->
<svg version="1.1" id="Capa_1" xmlns="http://www.w3.org/2000/svg" xmlns:xlink="http://www.w3.org/1999/xlink" x="0px" y="0px"
	 viewBox="0 0 166.2 54.2" style="enable-background:new 0 0 166.2 54.2;" xml:space="preserve">
<style type="text/css">
	.st0{fill:#4C4C4C;}
	.st1{fill:#FFC210;}
</style>
<g>
	<path class="st0" d="M1.9,39.1V15.1h20.1c1.5,0,2.7,0.1,3.6,0.4c0.9,0.2,1.6,0.6,2.1,1.1c0.5,0.5,0.8,1.1,1,1.8
		c0.2,0.7,0.3,1.5,0.3,2.4c0,0.7-0.1,1.3-0.2,1.8c-0.1,0.5-0.3,1-0.5,1.3c-0.2,0.4-0.4,0.7-0.6,0.9c-0.2,0.3-0.5,0.5-0.7,0.6
		c-0.6,0.4-1.3,0.6-2,0.7c0.9,0.1,1.8,0.3,2.5,0.7c0.3,0.2,0.6,0.4,0.9,0.7c0.3,0.3,0.6,0.6,0.8,1c0.2,0.4,0.4,0.9,0.6,1.4
		c0.1,0.5,0.2,1.1,0.2,1.8c0,0.8,0,1.6-0.1,2.3c-0.1,0.7-0.2,1.3-0.5,1.9c-0.2,0.6-0.6,1-1,1.5c-0.4,0.4-1,0.8-1.8,1
		c-0.7,0.3-1.7,0.5-2.7,0.6c-1.1,0.1-2.4,0.2-3.9,0.2H1.9z M18.9,25.1c1,0,1.9,0,2.6-0.1c0.7,0,1.4-0.1,1.9-0.2
		c0.5-0.1,0.9-0.3,1.3-0.5c0.3-0.2,0.6-0.5,0.8-0.8c0.2-0.3,0.3-0.7,0.4-1.2c0.1-0.5,0.1-1,0.1-1.6c0-0.7-0.1-1.2-0.2-1.6
		c-0.1-0.4-0.4-0.7-0.8-1c-0.4-0.2-0.9-0.4-1.5-0.5c-0.6-0.1-1.5-0.1-2.5-0.1H4.9v7.5H18.9z M18.9,36.6c1.2,0,2.2,0,3-0.1
		c0.9,0,1.6-0.1,2.2-0.2c0.6-0.1,1.1-0.3,1.4-0.5c0.4-0.2,0.7-0.5,0.9-0.9c0.2-0.4,0.3-0.8,0.4-1.4c0.1-0.5,0.1-1.2,0.1-1.9
		c0-0.6,0-1.1-0.1-1.5c-0.1-0.4-0.2-0.8-0.4-1.1c-0.2-0.3-0.5-0.5-0.9-0.7c-0.4-0.2-0.8-0.3-1.4-0.4c-0.6-0.1-1.3-0.2-2.2-0.2
		c-0.9,0-1.9-0.1-3-0.1h-14v9H18.9z"/>
	<path class="st0" d="M61,15.1v2.5H49v21.6h-3V17.6H34v-2.5H61z"/>
	<path class="st0" d="M66,39.1V15.1h20.1c1.5,0,2.7,0.1,3.6,0.4c0.9,0.2,1.6,0.6,2.1,1.1c0.5,0.5,0.8,1.1,1,1.8
		c0.2,0.7,0.3,1.5,0.3,2.4c0,0.7-0.1,1.3-0.2,1.8c-0.1,0.5-0.3,1-0.5,1.3c-0.2,0.4-0.4,0.7-0.6,0.9c-0.2,0.3-0.5,0.5-0.7,0.6
		c-0.6,0.4-1.3,0.6-2,0.7c0.9,0.1,1.8,0.3,2.5,0.7c0.3,0.2,0.6,0.4,0.9,0.7c0.3,0.3,0.6,0.6,0.8,1c0.2,0.4,0.4,0.9,0.6,1.4
		c0.1,0.5,0.2,1.1,0.2,1.8c0,0.8,0,1.6-0.1,2.3c-0.1,0.7-0.2,1.3-0.5,1.9c-0.2,0.6-0.6,1-1,1.5c-0.4,0.4-1,0.8-1.8,1
		C90,38.6,89,38.8,88,38.9c-1.1,0.1-2.4,0.2-3.9,0.2H66z M83.1,25.1c1,0,1.9,0,2.6-0.1c0.7,0,1.4-0.1,1.9-0.2
		c0.5-0.1,0.9-0.3,1.3-0.5c0.3-0.2,0.6-0.5,0.8-0.8c0.2-0.3,0.3-0.7,0.4-1.2s0.1-1,0.1-1.6c0-0.7-0.1-1.2-0.2-1.6
		c-0.1-0.4-0.4-0.7-0.8-1c-0.4-0.2-0.9-0.4-1.5-0.5c-0.6-0.1-1.5-0.1-2.5-0.1H69.1v7.5H83.1z M83.1,36.6c1.2,0,2.2,0,3-0.1
		c0.9,0,1.6-0.1,2.2-0.2c0.6-0.1,1.1-0.3,1.4-0.5c0.4-0.2,0.7-0.5,0.9-0.9c0.2-0.4,0.3-0.8,0.4-1.4c0.1-0.5,0.1-1.2,0.1-1.9
		c0-0.6,0-1.1-0.1-1.5c-0.1-0.4-0.2-0.8-0.4-1.1c-0.2-0.3-0.5-0.5-0.9-0.7c-0.4-0.2-0.8-0.3-1.4-0.4c-0.6-0.1-1.3-0.2-2.2-0.2
		c-0.9,0-1.9-0.1-3-0.1h-14v9H83.1z"/>
	<path class="st0" d="M118.2,14.6c1.8,0,3.4,0.1,4.6,0.3c1.3,0.2,2.3,0.6,3.1,1c0.8,0.5,1.4,1,1.9,1.7s0.8,1.5,1,2.4
		c0.2,0.9,0.3,2,0.4,3.2c0,1.2,0.1,2.5,0.1,3.9s0,2.7-0.1,3.9c0,1.2-0.2,2.2-0.4,3.2c-0.2,0.9-0.5,1.7-1,2.4
		c-0.4,0.7-1.1,1.3-1.9,1.7c-0.8,0.5-1.9,0.8-3.1,1c-1.3,0.2-2.8,0.3-4.6,0.3h-9.1c-1.8,0-3.4-0.1-4.6-0.3c-1.3-0.2-2.3-0.6-3.1-1
		c-0.8-0.5-1.4-1-1.9-1.7c-0.4-0.7-0.8-1.5-1-2.4c-0.2-0.9-0.3-2-0.4-3.2c0-1.2,0-2.5,0-3.9s0-2.7,0-3.9c0-1.2,0.1-2.2,0.4-3.2
		c0.2-0.9,0.5-1.7,1-2.4s1.1-1.3,1.9-1.7c0.8-0.5,1.9-0.8,3.1-1c1.3-0.2,2.8-0.3,4.6-0.3H118.2z M118.2,37.1c1.3,0,2.4,0,3.4-0.1
		c0.9-0.1,1.7-0.2,2.3-0.5c0.6-0.2,1.1-0.6,1.4-1c0.3-0.4,0.6-1,0.7-1.8c0.1-0.7,0.2-1.7,0.3-2.7c0-1.1,0-2.4,0-3.9s0-2.8,0-3.9
		c0-1.1-0.1-2-0.3-2.7c-0.1-0.7-0.4-1.3-0.7-1.8c-0.3-0.4-0.8-0.8-1.4-1c-0.6-0.2-1.3-0.4-2.3-0.5c-0.9-0.1-2-0.1-3.4-0.1h-9.1
		c-1.3,0-2.5,0-3.4,0.1s-1.7,0.2-2.3,0.5c-0.6,0.2-1.1,0.6-1.4,1c-0.3,0.4-0.6,1-0.7,1.8c-0.1,0.7-0.2,1.7-0.3,2.7
		c0,1.1,0,2.4,0,3.9s0,2.8,0,3.9c0,1.1,0.1,2,0.3,2.7c0.1,0.7,0.4,1.3,0.7,1.8c0.3,0.4,0.8,0.8,1.4,1c0.6,0.2,1.4,0.4,2.3,0.5
		s2,0.1,3.4,0.1H118.2z"/>
	<path class="st1" d="M150.2,26.4l14.2,12.7h-4.3l-12-10.8l-11.6,10.8h-4.3l13.7-12.7l-12.7-11.4h4.3l10.5,9.4l10.2-9.4h4.3
		L150.2,26.4z"/>
</g>
</svg>
