<svg xmlns="http://www.w3.org/2000/svg" width="591.395" height="568.03" viewBox="0 0 591.395 568.03"><defs><style>.a{fill:#f4f9ed;}</style></defs><path class="a" d="M319.253,1035.455a119.5,119.5,0,0,1-10.633,10.69,123.372,123.372,0,0,1-74.131,27.473l-3.152-.082c-39.076,0-70.82,30.832-74.04,69.8a123.625,123.625,0,0,1-44.139,87.11,74.713,74.713,0,0,0-31.952,61.7,77.9,77.9,0,0,0,30.432,61.582c26.054,20.441,43.449,51.847,46.412,87.2a74.51,74.51,0,0,0,26.1,50.492A74.527,74.527,0,0,0,235.84,1511.8c29.732.627,56.915,12.268,78.08,30.948q4.033,3.815,7.742,7.9a72.221,72.221,0,0,0,55.535,26.038c22.926,0,43.27-10.71,57.306-26.787a120.38,120.38,0,0,1,10.652-10.734,123.584,123.584,0,0,1,74.165-27.453l3.128.091c39.071,0,70.859-30.828,74.025-69.817a123.582,123.582,0,0,1,44.168-87.1,74.889,74.889,0,0,0,31.961-61.713,78.042,78.042,0,0,0-30.456-61.572,123.856,123.856,0,0,1-46.408-87.2,79.918,79.918,0,0,0-77.809-70.859c-29.712-.632-56.862-12.288-78.06-30.977-2.722-2.509-5.295-5.169-7.761-7.872a72.19,72.19,0,0,0-55.52-26.035c-22.955,0-43.27,10.735-57.335,26.8" transform="translate(-81.206 -1008.653)"/></svg>