<svg xmlns="http://www.w3.org/2000/svg" width="50" height="50" viewBox="0 0 50 50">
  <g id="Calendar" transform="translate(-173 -1543)">
    <path id="Trazado_149" data-name="Trazado 149" d="M6.25,15.625V43.75h37.5V15.625ZM40.625,6.25h6.25A2.952,2.952,0,0,1,50,9.375v37.5A2.952,2.952,0,0,1,46.875,50H3.125A2.952,2.952,0,0,1,0,46.875V9.375A2.952,2.952,0,0,1,3.125,6.25h6.25V3.125A2.952,2.952,0,0,1,12.5,0a2.952,2.952,0,0,1,3.125,3.125V6.25h18.75V3.125a3.125,3.125,0,1,1,6.25,0ZM37.5,37.5H31.25V31.25H37.5Zm-9.375,0h-6.25V31.25h6.25ZM37.5,28.125H31.25v-6.25H37.5Zm-9.375,0h-6.25v-6.25h6.25ZM18.75,37.5H12.5V31.25h6.25Z" transform="translate(173 1543)" fill="#85bc3c" fill-rule="evenodd"/>
  </g>
</svg>
