<?xml version="1.0" encoding="iso-8859-1"?>
<!-- Generator: Adobe Illustrator 19.0.0, SVG Export Plug-In . SVG Version: 6.00 Build 0)  -->
<svg xmlns="http://www.w3.org/2000/svg" xmlns:xlink="http://www.w3.org/1999/xlink" version="1.1" id="Layer_1" x="0px" y="0px" viewBox="0 0 511.997 511.997" style="enable-background:new 0 0 511.997 511.997;" xml:space="preserve" width="512" height="512">
<path d="M491.997,263.998c11.046,0,20-8.954,20-20V138.305c0-18.756-6.981-35.799-19.657-47.991  c-12.363-11.891-29.409-18.439-47.996-18.439c-11.507,0-22.508,3.242-32.186,9.303c-11.146-20.922-33.033-35.179-58.161-35.179  c-14.567,0-28.04,4.8-38.969,12.903c-12.036-16.31-31.324-26.903-53.031-26.903c-23.097,0-43.448,11.999-55.245,30.113  c-10.493-7.014-23.104-11.113-36.66-11.113c-36.393,0-66,29.512-66,65.788v13.546c-19.823,3.049-34.787,13.112-44.59,30.042  c-2.788,4.047-15.658,22.967-28.685,45.982C10.08,242.99,0,270.19,0,289.511c0,46.459,34.909,86.829,71.868,129.569  c15.764,18.229,52.678,60.918,151.128,60.918H375.41c75.314,0,136.586-60.561,136.586-135c0-11.046-8.954-20-20-20s-20,8.954-20,20  c0,52.383-43.329,95-96.586,95H222.997c-80.158,0-107.657-31.8-120.872-47.082C64.598,349.52,40,318.878,40,289.511  c0-21.496,30.906-75.533,52.849-107.035c0.373-0.535,0.72-1.088,1.039-1.657c2.302-4.105,5.208-7.383,10.204-9.372v97.551  c0,11.046,8.954,20,20,20s20-8.954,20-20V116.786c0-14.219,11.664-25.788,26-25.788c13.615,0,24.812,10.436,25.905,23.665v13.335  c0,11.046,8.954,20,20,20s20-8.954,20-20v-1.389c0.058-0.621,0.095-1.249,0.095-1.885v-7.938c0-1.174-0.034-2.341-0.095-3.5V98.35  c0-14.53,11.664-26.352,26-26.352s26,11.821,26,26.352v29.648c0,11.046,8.954,20,20,20s20-8.954,20-20v-15.35  c0-14.695,11.664-26.65,26-26.65s26,11.955,26,26.65v27.283c0,0.007,0.001,0.014,0.001,0.021c0,0.015-0.001,0.03-0.001,0.045  c0,11.046,8.954,20,20,20s20-8.954,20-20c0-13.302,9.999-28.124,24.347-28.124c16.798,0,27.653,10.375,27.653,26.43v105.693  C471.997,255.044,480.951,263.998,491.997,263.998z"/>















</svg>
