<svg xmlns="http://www.w3.org/2000/svg" width="22.5" height="30" viewBox="0 0 22.5 30">
  <g id="shopping-list" transform="translate(-64)">
    <g id="Grupo_166" data-name="Grupo 166" transform="translate(69.625)">
      <g id="Grupo_165" data-name="Grupo 165">
        <path id="Trazado_2070" data-name="Trazado 2070" d="M170.313,1.875h-2.036a2.813,2.813,0,0,0-5.3,0h-2.034a.938.938,0,0,0-.937.938v3.75a.938.938,0,0,0,.937.938h9.375a.938.938,0,0,0,.937-.938V2.813A.938.938,0,0,0,170.313,1.875Z" transform="translate(-160)" fill="#85bc3c"/>
      </g>
    </g>
    <g id="Grupo_168" data-name="Grupo 168" transform="translate(64 3.75)">
      <g id="Grupo_167" data-name="Grupo 167">
        <path id="Trazado_2071" data-name="Trazado 2071" d="M84.625,64H82.75v2.813a2.816,2.816,0,0,1-2.812,2.812H70.563a2.816,2.816,0,0,1-2.813-2.812V64H65.875A1.878,1.878,0,0,0,64,65.875v22.5a1.854,1.854,0,0,0,1.875,1.875h18.75A1.854,1.854,0,0,0,86.5,88.375v-22.5A1.854,1.854,0,0,0,84.625,64ZM74.976,80.6l-3.75,3.75a.942.942,0,0,1-1.328,0l-1.875-1.875a.937.937,0,0,1,1.326-1.326l1.213,1.211,3.086-3.086A.938.938,0,0,1,74.976,80.6Zm0-7.5-3.75,3.75a.942.942,0,0,1-1.328,0l-1.875-1.875a.937.937,0,0,1,1.326-1.326l1.213,1.211,3.086-3.086A.938.938,0,0,1,74.976,73.1Zm6.836,9.649h-3.75a.938.938,0,1,1,0-1.875h3.75a.938.938,0,0,1,0,1.875Zm0-7.5h-3.75a.938.938,0,1,1,0-1.875h3.75a.938.938,0,0,1,0,1.875Z" transform="translate(-64 -64)" fill="#85bc3c"/>
      </g>
    </g>
  </g>
</svg>
