<svg xmlns="http://www.w3.org/2000/svg" xmlns:xlink="http://www.w3.org/1999/xlink" width="22.607" height="21.942" viewBox="0 0 22.607 21.942">
  <defs>
    <clipPath id="clip-path">
      <rect width="22.607" height="21.942" fill="none"/>
    </clipPath>
  </defs>
  <g id="ic_mje_hover" clip-path="url(#clip-path)">
    <g id="dialog" transform="translate(0 -7.529)">
      <g id="Grupo_212" data-name="Grupo 212" transform="translate(6.191 12.183)">
        <g id="Grupo_211" data-name="Grupo 211">
          <path id="Trazado_2121" data-name="Trazado 2121" d="M155.631,112.94h-2.992v8.068A3,3,0,0,1,149.647,124h-6.194l-.95.665-1.425,1-.866.606a1,1,0,0,0,.791.391h6.822l4.84,3.388a1,1,0,0,0,1.569-.817V126.66h1.4a1,1,0,0,0,1-1V113.937A1,1,0,0,0,155.631,112.94Z" transform="translate(-140.212 -112.94)" fill="#85bc3c"/>
        </g>
      </g>
      <g id="Grupo_214" data-name="Grupo 214" transform="translate(0 7.529)">
        <g id="Grupo_213" data-name="Grupo 213">
          <path id="Trazado_2122" data-name="Trazado 2122" d="M15.626,7.529H1a1,1,0,0,0-1,1V20.251a1,1,0,0,0,1,1h1.4V23.82a1,1,0,0,0,1.569.817l2.021-1.415,1-.7,1-.7.824-.577h6.822a1,1,0,0,0,1-1V8.526A1,1,0,0,0,15.626,7.529ZM11.636,17.5H4.987a1,1,0,0,1,0-1.995h6.649a1,1,0,0,1,0,1.995Zm0-3.99H4.987a1,1,0,0,1,0-1.995h6.649a1,1,0,0,1,0,1.995Z" transform="translate(0 -7.529)" fill="#85bc3c"/>
        </g>
      </g>
    </g>
  </g>
</svg>
