<svg xmlns="http://www.w3.org/2000/svg" xmlns:xlink="http://www.w3.org/1999/xlink" width="25.606" height="25.942" viewBox="0 0 25.606 25.942">
  <defs>
    <clipPath id="clip-path">
      <rect width="25.606" height="25.942" fill="none"/>
    </clipPath>
  </defs>
  <g id="ic_mje_on" transform="translate(0)" clip-path="url(#clip-path)">
    <g id="dialog" transform="translate(0 -3.529)">
      <g id="Grupo_212" data-name="Grupo 212" transform="translate(6.191 12.183)">
        <g id="Grupo_211" data-name="Grupo 211">
          <path id="Trazado_2121" data-name="Trazado 2121" d="M155.631,112.94h-2.992v8.068A3,3,0,0,1,149.647,124h-6.194l-.95.665-1.425,1-.866.606a1,1,0,0,0,.791.391h6.822l4.84,3.388a1,1,0,0,0,1.569-.817V126.66h1.4a1,1,0,0,0,1-1V113.937A1,1,0,0,0,155.631,112.94Z" transform="translate(-140.212 -112.94)" fill="#3c3c3b"/>
        </g>
      </g>
      <g id="Grupo_214" data-name="Grupo 214" transform="translate(0 7.529)">
        <g id="Grupo_213" data-name="Grupo 213">
          <path id="Trazado_2122" data-name="Trazado 2122" d="M15.626,7.529H1a1,1,0,0,0-1,1V20.251a1,1,0,0,0,1,1h1.4V23.82a1,1,0,0,0,1.569.817l2.021-1.415,1-.7,1-.7.824-.577h6.822a1,1,0,0,0,1-1V8.526A1,1,0,0,0,15.626,7.529ZM11.636,17.5H4.987a1,1,0,0,1,0-1.995h6.649a1,1,0,0,1,0,1.995Zm0-3.99H4.987a1,1,0,0,1,0-1.995h6.649a1,1,0,0,1,0,1.995Z" transform="translate(0 -7.529)" fill="#3c3c3b"/>
        </g>
      </g>
    </g>
    <g id="Trazado_2123" data-name="Trazado 2123" transform="translate(11.606)" fill="#ff9821">
      <path d="M 7 13 C 3.691590070724487 13 1 10.30840969085693 1 7 C 1 3.691590070724487 3.691590070724487 1 7 1 C 10.30840969085693 1 13 3.691590070724487 13 7 C 13 10.30840969085693 10.30840969085693 13 7 13 Z" stroke="none"/>
      <path d="M 7 2 C 4.242989540100098 2 2 4.242989540100098 2 7 C 2 9.757009506225586 4.242989540100098 12 7 12 C 9.757009506225586 12 12 9.757009506225586 12 7 C 12 4.242989540100098 9.757009506225586 2 7 2 M 7 0 C 10.86598968505859 0 14 3.134010314941406 14 7 C 14 10.86598968505859 10.86598968505859 14 7 14 C 3.134010314941406 14 0 10.86598968505859 0 7 C 0 3.134010314941406 3.134010314941406 0 7 0 Z" stroke="none" fill="#fff"/>
    </g>
  </g>
</svg>
