<svg xmlns="http://www.w3.org/2000/svg" xmlns:xlink="http://www.w3.org/1999/xlink" width="27.354" height="28.541" viewBox="0 0 27.354 28.541">
  <defs>
    <clipPath id="clip-path">
      <rect width="27.354" height="28.541" fill="none"/>
    </clipPath>
    <clipPath id="clip-path-2">
      <rect width="19.166" height="19.167" fill="none"/>
    </clipPath>
  </defs>
  <g id="ic_machear_hover" clip-path="url(#clip-path)">
    <g id="Grupo_221" data-name="Grupo 221" transform="translate(-1039 -28.626)">
      <g id="Profile" transform="translate(1047.188 38)" clip-path="url(#clip-path-2)">
        <path id="Uni贸n_1" data-name="Uni贸n 1" d="M0,12.977V11.355C0,9.57,2.92,8.11,6.489,8.11s6.489,1.46,6.489,3.244v1.622ZM3.244,3.244A3.244,3.244,0,1,1,6.489,6.488,3.244,3.244,0,0,1,3.244,3.244Z" transform="translate(3.694 4.493)" fill="#85bc3c"/>
      </g>
      <g id="Profile-2" data-name="Profile" transform="translate(1039 38)" clip-path="url(#clip-path-2)">
        <g id="Uni贸n_1-2" data-name="Uni贸n 1" transform="translate(0.998 1.797)" fill="#85bc3c">
          <path d="M 16.67303848266602 16.67237663269043 L 15.67303943634033 16.67237663269043 L -7.586669994452677e-07 16.67237663269043 L -1.000000715255737 16.67237663269043 L -1.000000715255737 15.67237758636475 L -1.000000715255737 13.71360778808594 C -1.000000715255737 12.27268695831299 0.01387924142181873 10.97222709655762 1.854869246482849 10.05178737640381 C 3.340532779693604 9.309000968933105 5.249455451965332 8.872151374816895 7.280343532562256 8.804561614990234 C 4.829301357269287 8.52742862701416 2.918259143829346 6.441442489624023 2.918259143829346 3.917537450790405 C 2.918259143829346 1.205997347831726 5.124579429626465 -1.00000262260437 7.836519241333008 -1.00000262260437 C 10.54845905303955 -1.00000262260437 12.75477886199951 1.205997347831726 12.75477886199951 3.917537450790405 C 12.75477886199951 6.441442489624023 10.84373664855957 8.52742862701416 8.392694473266602 8.804561614990234 C 10.42358303070068 8.872151374816895 12.33250522613525 9.309000968933105 13.81816959381104 10.05178737640381 C 15.65915966033936 10.97222709655762 16.67303848266602 12.27268695831299 16.67303848266602 13.71360778808594 L 16.67303848266602 15.67237758636475 L 16.67303848266602 16.67237663269043 Z" stroke="none"/>
          <path d="M 15.67303943634033 15.67237758636475 L 15.67303943634033 13.71360778808594 C 15.67303943634033 11.55828762054443 12.1463794708252 9.795327186584473 7.836519241333008 9.795327186584473 C 3.526659250259399 9.795327186584473 -7.586669994452677e-07 11.55828762054443 -7.586669994452677e-07 13.71360778808594 L -7.586669994452677e-07 15.67237758636475 L 15.67303943634033 15.67237758636475 M 7.836519241333008 7.835807323455811 C 10.00078964233398 7.835807323455811 11.75477886199951 6.081817150115967 11.75477886199951 3.917537450790405 C 11.75477886199951 1.753997325897217 10.00078964233398 -2.637329089338891e-06 7.836519241333008 -2.637329089338891e-06 C 5.672249317169189 -2.637329089338891e-06 3.918259143829346 1.753997325897217 3.918259143829346 3.917537450790405 C 3.918259143829346 6.081817150115967 5.672249317169189 7.835807323455811 7.836519241333008 7.835807323455811 M 17.67303848266602 17.67237663269043 L 15.67303943634033 17.67237663269043 L -7.586669994452677e-07 17.67237663269043 L -2.000000715255737 17.67237663269043 L -2.000000715255737 15.67237758636475 L -2.000000715255737 13.71360778808594 C -2.000000715255737 12.71353721618652 -1.621610760688782 11.73959732055664 -0.9057307839393616 10.89708709716797 C -0.3341607451438904 10.22439765930176 0.4441792368888855 9.639067649841309 1.407679200172424 9.157347679138184 C 2.136254787445068 8.793082237243652 2.955526113510132 8.496652603149414 3.835188627243042 8.274490356445313 C 2.657498121261597 7.192015647888184 1.918259263038635 5.639440536499023 1.918259263038635 3.917537450790405 C 1.918259263038635 0.6545973420143127 4.573179244995117 -2.00000262260437 7.836519241333008 -2.00000262260437 C 11.0998592376709 -2.00000262260437 13.75477886199951 0.6545973420143127 13.75477886199951 3.917537450790405 C 13.75477886199951 5.639440536499023 13.01554012298584 7.192015647888184 11.83784961700439 8.274490356445313 C 12.7175121307373 8.496652603149414 13.53678417205811 8.793082237243652 14.26535892486572 9.157347679138184 C 15.22885894775391 9.639067649841309 16.00719833374023 10.22439765930176 16.57876968383789 10.89708709716797 C 17.29464912414551 11.73959732055664 17.67303848266602 12.71353721618652 17.67303848266602 13.71360778808594 L 17.67303848266602 15.67237758636475 L 17.67303848266602 17.67237663269043 Z" stroke="none" fill="#fff"/>
        </g>
      </g>
    </g>
    <path id="share" d="M10.458,4.766,6.112,0V2.844H5.188A5.188,5.188,0,0,0,0,8.032V9.539l.41-.45a7.365,7.365,0,0,1,5.44-2.4h.262V9.532Zm0,0" transform="matrix(0.848, 0.53, -0.53, 0.848, 12.639, 0)" fill="#85bc3c"/>
  </g>
</svg>
