<svg xmlns="http://www.w3.org/2000/svg" xmlns:xlink="http://www.w3.org/1999/xlink" width="22" height="24.75" viewBox="0 0 22 24.75">
  <defs>
    <clipPath id="clip-path">
      <rect width="22" height="24.75" fill="none"/>
    </clipPath>
    <clipPath id="clip-path-2">
      <rect width="22" height="20.75" fill="none"/>
    </clipPath>
  </defs>
  <g id="ic_notification" clip-path="url(#clip-path)">
    <g id="Alert" transform="translate(0 4)" clip-path="url(#clip-path-2)">
      <rect id="Rectángulo_479" data-name="Rectángulo 479" width="20.75" height="20.75" fill="none"/>
      <path id="Trazado_1" data-name="Trazado 1" d="M20.63,18.156H13.746a2.685,2.685,0,0,1-2.754,2.594,2.685,2.685,0,0,1-2.754-2.594H1.353a1.311,1.311,0,0,1-1.239-.908,1.333,1.333,0,0,1,.413-1.427,5.125,5.125,0,0,0,2.2-4.15V7.781A8.056,8.056,0,0,1,10.992,0a8.056,8.056,0,0,1,8.262,7.781v3.891a5.125,5.125,0,0,0,2.2,4.15,1.184,1.184,0,0,1,.413,1.427A1.311,1.311,0,0,1,20.63,18.156Z" transform="translate(-0.063)" fill="#3c3c3b" fill-rule="evenodd"/>
    </g>
  </g>
</svg>
