<svg xmlns="http://www.w3.org/2000/svg" width="30" height="30.041" viewBox="0 0 30 30.041">
  <g id="classroom" transform="translate(-0.353)">
    <g id="Grupo_140" data-name="Grupo 140" transform="translate(12.675 0.984)">
      <g id="Grupo_139" data-name="Grupo 139">
        <path id="Trazado_2061" data-name="Trazado 2061" d="M225.435,16.768H211.01a.651.651,0,0,0-.651.651v5.072l.722-.448a1.805,1.805,0,0,1,.58-.233V18.07h13.123v9.389H211.661V25.94l-1.3.808V28.11a.651.651,0,0,0,.651.651h14.425a.651.651,0,0,0,.651-.651V17.419A.651.651,0,0,0,225.435,16.768Z" transform="translate(-210.359 -16.768)" fill="#85bc3c"/>
      </g>
    </g>
    <g id="Grupo_142" data-name="Grupo 142" transform="translate(15.341 4.407)">
      <g id="Grupo_141" data-name="Grupo 141">
        <path id="Trazado_2062" data-name="Trazado 2062" d="M258.744,75.3a.5.5,0,0,0-.7-.083L255.8,76.981a1.8,1.8,0,0,1,.653.76L258.661,76A.5.5,0,0,0,258.744,75.3Z" transform="translate(-255.798 -75.106)" fill="#85bc3c"/>
      </g>
    </g>
    <g id="Grupo_144" data-name="Grupo 144" transform="translate(5.59 0)">
      <g id="Grupo_143" data-name="Grupo 143" transform="translate(0 0)">
        <circle id="Elipse_17" data-name="Elipse 17" cx="1.874" cy="1.874" r="1.874" fill="#85bc3c"/>
      </g>
    </g>
    <g id="Grupo_146" data-name="Grupo 146" transform="translate(2.859 4.345)">
      <g id="Grupo_145" data-name="Grupo 145">
        <path id="Trazado_2063" data-name="Trazado 2063" d="M55.32,77.022a.9.9,0,0,0-1.245-.291l-1.831,1.137c-.008-1.518,0-.713-.008-1.69a2.144,2.144,0,0,0-2.14-2.129h-.889c-.76,1.971-.515,1.239-1.16,2.912l.271-1.181a.377.377,0,0,0-.038-.26l-.368-.668.326-.593a.133.133,0,0,0-.116-.2h-.9a.133.133,0,0,0-.116.2l.327.594-.368.67a.377.377,0,0,0-.039.255l.235,1.184L46.14,74.048h-.907a2.144,2.144,0,0,0-2.139,2.129l-.033,6.642a.9.9,0,0,0,.9.909h0a.9.9,0,0,0,.9-.9l.033-6.642v0a.179.179,0,0,1,.359,0V85.6a3.016,3.016,0,0,1,2.17.788V82.712H47.9v4.211a3.025,3.025,0,0,1,.085,3.268,3.293,3.293,0,0,1,.827.109,3.024,3.024,0,0,1,1.258-.653c0-16.39-.02-6.256-.02-13.461a.189.189,0,0,1,.378,0c0,.634.013,2.616.017,3.306a.9.9,0,0,0,1.381.764l3.2-1.989A.9.9,0,0,0,55.32,77.022Z" transform="translate(-43.06 -74.048)" fill="#85bc3c"/>
      </g>
    </g>
    <g id="Grupo_148" data-name="Grupo 148" transform="translate(23.533 16.959)">
      <g id="Grupo_147" data-name="Grupo 147">
        <circle id="Elipse_18" data-name="Elipse 18" cx="1.983" cy="1.983" r="1.983" fill="#85bc3c"/>
      </g>
    </g>
    <g id="Grupo_150" data-name="Grupo 150" transform="translate(22.997 21.557)">
      <g id="Grupo_149" data-name="Grupo 149">
        <path id="Trazado_2064" data-name="Trazado 2064" d="M393.629,369.66a2.27,2.27,0,0,0-2.265-2.253h-4.974a3.023,3.023,0,0,1-.105,2.953,3.316,3.316,0,0,1,2.649,1.519h2.381v-2.2a.2.2,0,0,1,.4-.014h0l.011,2.21h1.914Z" transform="translate(-386.284 -367.407)" fill="#85bc3c"/>
      </g>
    </g>
    <g id="Grupo_152" data-name="Grupo 152" transform="translate(13.186 21.536)">
      <g id="Grupo_151" data-name="Grupo 151">
        <path id="Trazado_2065" data-name="Trazado 2065" d="M223.254,368.439a3.011,3.011,0,0,1,.346-1.4h-4.416a3.024,3.024,0,0,1-.119,2.92,3.3,3.3,0,0,1,2.364,1.013,3.279,3.279,0,0,1,2.279-.938A3.027,3.027,0,0,1,223.254,368.439Z" transform="translate(-219.064 -367.036)" fill="#85bc3c"/>
      </g>
    </g>
    <g id="Grupo_154" data-name="Grupo 154" transform="translate(13.887 16.937)">
      <g id="Grupo_153" data-name="Grupo 153">
        <path id="Trazado_2066" data-name="Trazado 2066" d="M233,288.655a1.983,1.983,0,1,0,1.983,1.983A1.983,1.983,0,0,0,233,288.655Z" transform="translate(-231.015 -288.655)" fill="#85bc3c"/>
      </g>
    </g>
    <g id="Grupo_156" data-name="Grupo 156" transform="translate(0.353 21.535)">
      <g id="Grupo_155" data-name="Grupo 155">
        <path id="Trazado_2067" data-name="Trazado 2067" d="M7.562,368.384a3.013,3.013,0,0,1,.317-1.348c-.085,0,.274,0-5.25,0a2.27,2.27,0,0,0-2.265,2.253l-.011,2.241H2.267l.011-2.231a.2.2,0,0,1,.4,0v2.23H5.362a3.3,3.3,0,0,1,2.655-1.549A3.008,3.008,0,0,1,7.562,368.384Z" transform="translate(-0.353 -367.033)" fill="#85bc3c"/>
      </g>
    </g>
    <g id="Grupo_158" data-name="Grupo 158" transform="translate(3.206 16.937)">
      <g id="Grupo_157" data-name="Grupo 157">
        <path id="Trazado_2068" data-name="Trazado 2068" d="M50.966,288.655a1.983,1.983,0,1,0,1.983,1.983A1.983,1.983,0,0,0,50.966,288.655Z" transform="translate(-48.983 -288.655)" fill="#85bc3c"/>
      </g>
    </g>
    <g id="Grupo_160" data-name="Grupo 160" transform="translate(5.874 25.495)">
      <g id="Grupo_159" data-name="Grupo 159">
        <path id="Trazado_2069" data-name="Trazado 2069" d="M113.693,436.816a2.27,2.27,0,0,0-2.265-2.253h-5.017a2.327,2.327,0,0,0-2.33,2.253l-.016-.052a2.27,2.27,0,0,0-2.265-2.253H96.783a2.327,2.327,0,0,0-2.33,2.253l-.011,2.293h1.914l.011-2.284a.173.173,0,0,1,.345,0v2.283h5.069v-2.283a.185.185,0,0,1,.37,0l.011,2.284h3.822l.011-2.231h0a.173.173,0,0,1,.345,0v2.231h5.069v-2.231a.185.185,0,0,1,.37,0l.011,2.231H113.7Z" transform="translate(-94.442 -434.51)" fill="#85bc3c"/>
      </g>
    </g>
    <g id="Grupo_162" data-name="Grupo 162" transform="translate(8.649 20.873)">
      <g id="Grupo_161" data-name="Grupo 161">
        <circle id="Elipse_19" data-name="Elipse 19" cx="2.007" cy="2.007" r="2.007" fill="#85bc3c"/>
      </g>
    </g>
    <g id="Grupo_164" data-name="Grupo 164" transform="translate(18.396 20.925)">
      <g id="Grupo_163" data-name="Grupo 163">
        <circle id="Elipse_20" data-name="Elipse 20" cx="2.007" cy="2.007" r="2.007" fill="#85bc3c"/>
      </g>
    </g>
  </g>
</svg>
