<svg xmlns="http://www.w3.org/2000/svg" width="30" height="30" viewBox="0 0 30 30">
  <g id="network" transform="translate(0 -0.004)">
    <g id="Grupo_122" data-name="Grupo 122" transform="translate(4.501 9.504)">
      <g id="Grupo_121" data-name="Grupo 121">
        <ellipse id="Elipse_13" data-name="Elipse 13" cx="1" cy="1" rx="1" ry="1" fill="#85bc3c"/>
      </g>
    </g>
    <g id="Grupo_124" data-name="Grupo 124" transform="translate(3.501 14.504)">
      <g id="Grupo_123" data-name="Grupo 123">
        <path id="Trazado_2056" data-name="Trazado 2056" d="M63.2,247.479H60.3a.531.531,0,0,0-.549.508v2.11a5.427,5.427,0,0,0,4,0v-2.11A.531.531,0,0,0,63.2,247.479Z" transform="translate(-59.751 -247.479)" fill="#85bc3c"/>
      </g>
    </g>
    <g id="Grupo_126" data-name="Grupo 126" transform="translate(16.5 3.004)">
      <g id="Grupo_125" data-name="Grupo 125">
        <ellipse id="Elipse_14" data-name="Elipse 14" cx="1" cy="1" rx="1" ry="1" fill="#85bc3c"/>
      </g>
    </g>
    <g id="Grupo_128" data-name="Grupo 128" transform="translate(15.501 8.004)">
      <g id="Grupo_127" data-name="Grupo 127">
        <path id="Trazado_2057" data-name="Trazado 2057" d="M268,136.546h-2.9a.531.531,0,0,0-.549.508v2.11a5.427,5.427,0,0,0,4,0v-2.11A.531.531,0,0,0,268,136.546Z" transform="translate(-264.551 -136.546)" fill="#85bc3c"/>
      </g>
    </g>
    <g id="Grupo_130" data-name="Grupo 130" transform="translate(23 16.004)">
      <g id="Grupo_129" data-name="Grupo 129">
        <ellipse id="Elipse_15" data-name="Elipse 15" cx="1" cy="1" rx="1" ry="1" fill="#85bc3c"/>
      </g>
    </g>
    <g id="Grupo_132" data-name="Grupo 132" transform="translate(22 21.004)">
      <g id="Grupo_131" data-name="Grupo 131">
        <path id="Trazado_2058" data-name="Trazado 2058" d="M378.934,358.413h-2.9a.531.531,0,0,0-.549.508v2.11a5.427,5.427,0,0,0,4,0v-2.11A.531.531,0,0,0,378.934,358.413Z" transform="translate(-375.484 -358.413)" fill="#85bc3c"/>
      </g>
    </g>
    <g id="Grupo_134" data-name="Grupo 134" transform="translate(0 0.004)">
      <g id="Grupo_133" data-name="Grupo 133">
        <path id="Trazado_2059" data-name="Trazado 2059" d="M24,13c-.067,0-.132.008-.2.01l-2.12-3.949a5.461,5.461,0,0,0,1.3-3.271l3.145,1.518A1.978,1.978,0,0,0,26,8a2,2,0,1,0,2-2,1.981,1.981,0,0,0-1.284.48L22.927,4.655A5.5,5.5,0,0,0,12.1,4.438a5.753,5.753,0,0,0-.095.83L9.044,7.8A5.471,5.471,0,0,0,6,6.529v-2.6a2,2,0,1,0-1,0v2.6A5.494,5.494,0,0,0,2.5,16.608v-1.6A1.531,1.531,0,0,1,4.05,13.5h2.9A1.531,1.531,0,0,1,8.5,15.012v1.6a5.506,5.506,0,0,0,2.407-3.652l2.256,1.759a2.042,2.042,0,1,0,.618-.786l-2.8-2.179A5.468,5.468,0,0,0,9.749,8.516l2.345-2.007a5.513,5.513,0,0,0,2.406,3.6v-1.6A1.531,1.531,0,0,1,16.049,7h2.9A1.531,1.531,0,0,1,20.5,8.511v.524a.508.508,0,0,0,.28.455l1.967,3.663A5.506,5.506,0,0,0,18.5,18.5a5.444,5.444,0,0,0,.3,1.771L16.78,21.794A5.494,5.494,0,0,0,6.526,24h-2.6a2,2,0,1,0,0,1h2.6A5.5,5.5,0,0,0,9,29.107v-1.6A1.531,1.531,0,0,1,10.55,26h2.9A1.531,1.531,0,0,1,15,27.511v1.6a5.512,5.512,0,0,0,2.353-3.378l3.277,1.582A1.978,1.978,0,0,0,20.5,28a2,2,0,1,0,2-2,1.981,1.981,0,0,0-1.284.48l-3.727-1.8c0-.061.011-.119.011-.181a5.469,5.469,0,0,0-.3-1.775l2.02-1.515A5.551,5.551,0,0,0,21,23.108v-1.6A1.531,1.531,0,0,1,22.55,20h2.9A1.531,1.531,0,0,1,27,21.512v1.6A5.5,5.5,0,0,0,24,13ZM5.5,12.5a2,2,0,1,1,2-2A2,2,0,0,1,5.5,12.5ZM17.5,6a2,2,0,1,1,2-2A2,2,0,0,1,17.5,6ZM12,25a2,2,0,1,1,2-2A2,2,0,0,1,12,25Zm12-6a2,2,0,1,1,2-2A2,2,0,0,1,24,19Z" transform="translate(0 -0.004)" fill="#85bc3c"/>
      </g>
    </g>
    <g id="Grupo_136" data-name="Grupo 136" transform="translate(11.001 22.004)">
      <g id="Grupo_135" data-name="Grupo 135">
        <ellipse id="Elipse_16" data-name="Elipse 16" cx="1" cy="1" rx="1" ry="1" fill="#85bc3c"/>
      </g>
    </g>
    <g id="Grupo_138" data-name="Grupo 138" transform="translate(10.001 27.004)">
      <g id="Grupo_137" data-name="Grupo 137">
        <path id="Trazado_2060" data-name="Trazado 2060" d="M174.134,460.813h-2.9a.531.531,0,0,0-.549.508v2.11a5.427,5.427,0,0,0,4,0v-2.11A.531.531,0,0,0,174.134,460.813Z" transform="translate(-170.684 -460.813)" fill="#85bc3c"/>
      </g>
    </g>
  </g>
</svg>
