<svg xmlns="http://www.w3.org/2000/svg" xmlns:xlink="http://www.w3.org/1999/xlink" width="104.351" height="100.929" viewBox="0 0 104.351 100.929"><defs><style>.a,.e{fill:none;}.b{fill:#85bc3c;}.c{clip-path:url(#a);}.d{fill:#fff;}.e{stroke:#fff;stroke-linecap:round;stroke-miterlimit:10;stroke-width:1.38px;}</style><clipPath id="a"><path class="a" d="M663.985,594.162c0,27.87,23.359,50.464,52.174,50.464s52.176-22.594,52.176-50.464S744.975,543.7,716.159,543.7s-52.174,22.593-52.174,50.464" transform="translate(-663.985 -543.698)"/></clipPath></defs><g transform="translate(0 0)"><path class="b" d="M716.16,644.624c28.816,0,52.176-22.594,52.176-50.464S744.975,543.7,716.16,543.7s-52.176,22.592-52.176,50.464,23.36,50.464,52.176,50.464" transform="translate(-663.984 -543.697)"/></g><g transform="translate(0.001 0.001)"><g class="c"><path class="d" d="M732.5,658.986H719.586l-13.354,43.877A4.919,4.919,0,1,1,696.82,700l15.452-50.771-5.039-1.529-4.893,16.076-.958-4.788H687l7.546-24.525,3.007,6.008a9.635,9.635,0,0,0,8.669,5.36,9.825,9.825,0,0,1,7.064,0,9.634,9.634,0,0,0,8.667-5.357l3-6.011Zm-9.875,40.925a4.978,4.978,0,0,1-9.481,3.036l-.752-2.251,5.209-17.115Zm-35.485-92.026a10.143,10.143,0,0,1,9.07-14.681h27.077a10.141,10.141,0,0,1,9.073,14.679l-15.119,30.236a4.4,4.4,0,0,1-3.961,2.45,4.43,4.43,0,0,1-3.96-6.41l13.309-26.621-4.706-2.354-8.173,16.347-8.171-16.344-4.706,2.354,9.936,19.872-2.2,4.393a9.625,9.625,0,0,0-.124,8.415,4.409,4.409,0,0,1-2.228-2.1Zm49.929,2.349a15.406,15.406,0,0,0-13.779-22.292h-27.08a15.4,15.4,0,0,0-13.779,22.292l8.705,17.411-11.263,36.6h17.192l2.033,10.162-7.32,24.055a10.18,10.18,0,0,0,17.9,9.052,10.241,10.241,0,0,0,17.98-9.156l-7.316-23.775,3.145-10.337h16.142l-11.263-36.6Z" transform="translate(-657.578 -525.86)"/><path class="e" d="M732.5,658.986H719.586l-13.354,43.877A4.919,4.919,0,1,1,696.82,700l15.452-50.771-5.039-1.529-4.893,16.076-.958-4.788H687l7.546-24.525,3.007,6.008a9.635,9.635,0,0,0,8.669,5.36,9.825,9.825,0,0,1,7.064,0,9.634,9.634,0,0,0,8.667-5.357l3-6.011Zm-9.875,40.925a4.978,4.978,0,0,1-9.481,3.036l-.752-2.251,5.209-17.115Zm-35.485-92.026a10.143,10.143,0,0,1,9.07-14.681h27.077a10.141,10.141,0,0,1,9.073,14.679l-15.119,30.236a4.4,4.4,0,0,1-3.961,2.45,4.43,4.43,0,0,1-3.96-6.41l13.309-26.621-4.706-2.354-8.173,16.347-8.171-16.344-4.706,2.354,9.936,19.872-2.2,4.393a9.625,9.625,0,0,0-.124,8.415,4.409,4.409,0,0,1-2.228-2.1Zm49.929,2.349a15.406,15.406,0,0,0-13.779-22.292h-27.08a15.4,15.4,0,0,0-13.779,22.292l8.705,17.411-11.263,36.6h17.192l2.033,10.162-7.32,24.055a10.18,10.18,0,0,0,17.9,9.052,10.241,10.241,0,0,0,17.98-9.156l-7.316-23.775,3.145-10.337h16.142l-11.263-36.6Z" transform="translate(-657.578 -525.86)"/><path class="d" d="M710.578,591.389a13.157,13.157,0,1,1,13.156-13.156,13.172,13.172,0,0,1-13.156,13.156m28.945-16.41v-5.092a10.073,10.073,0,0,0-17.195-7.124l-.74.74a18.272,18.272,0,0,0-22.019,0l-.74-.74a10.075,10.075,0,0,0-17.2,7.124v5.092a6.855,6.855,0,0,1-3.807,6.164l2.354,4.706a12.1,12.1,0,0,0,6.716-10.87v-5.092a4.81,4.81,0,0,1,8.211-3.4l.741.738a18.419,18.419,0,1,0,29.46,0l.74-.738a4.811,4.811,0,0,1,8.213,3.4v5.092a12.094,12.094,0,0,0,6.717,10.87l2.354-4.706a6.856,6.856,0,0,1-3.81-6.164" transform="translate(-658.405 -537.201)"/><path class="e" d="M710.578,591.389a13.157,13.157,0,1,1,13.156-13.156A13.172,13.172,0,0,1,710.578,591.389Zm28.945-16.41v-5.092a10.073,10.073,0,0,0-17.195-7.124l-.74.74a18.272,18.272,0,0,0-22.019,0l-.74-.74a10.075,10.075,0,0,0-17.2,7.124v5.092a6.855,6.855,0,0,1-3.807,6.164l2.354,4.706a12.1,12.1,0,0,0,6.716-10.87v-5.092a4.81,4.81,0,0,1,8.211-3.4l.741.738a18.419,18.419,0,1,0,29.46,0l.74-.738a4.811,4.811,0,0,1,8.213,3.4v5.092a12.094,12.094,0,0,0,6.717,10.87l2.354-4.706A6.856,6.856,0,0,1,739.522,574.978Z" transform="translate(-658.405 -537.201)"/></g></g></svg>