<svg xmlns="http://www.w3.org/2000/svg" xmlns:xlink="http://www.w3.org/1999/xlink" width="104.351" height="100.927" viewBox="0 0 104.351 100.927"><defs><style>.a,.e{fill:none;}.b{fill:#85bc3c;}.c{clip-path:url(#a);}.d{fill:#fff;}.e{stroke:#fff;stroke-linecap:round;stroke-miterlimit:10;stroke-width:1.38px;}</style><clipPath id="a"><path class="a" d="M690.082,256.968c0,27.87,23.359,50.464,52.176,50.464s52.174-22.594,52.174-50.464S771.072,206.5,742.258,206.5s-52.176,22.592-52.176,50.464" transform="translate(-690.082 -206.504)"/></clipPath></defs><path class="b" d="M742.258,307.431c28.814,0,52.174-22.594,52.174-50.464S771.073,206.5,742.258,206.5s-52.177,22.592-52.177,50.464,23.36,50.464,52.177,50.464" transform="translate(-690.081 -206.504)"/><g transform="translate(0.001 0)"><g class="c"><path class="d" d="M732.559,227.882A13.156,13.156,0,1,1,719.4,241.038a13.17,13.17,0,0,1,13.158-13.156m0,31.576a18.419,18.419,0,1,0-18.421-18.419,18.441,18.441,0,0,0,18.421,18.419" transform="translate(-680.383 -200.007)"/><path class="e" d="M732.559,227.882A13.156,13.156,0,1,1,719.4,241.038,13.17,13.17,0,0,1,732.559,227.882Zm0,31.576a18.419,18.419,0,1,0-18.421-18.419A18.441,18.441,0,0,0,732.559,259.458Z" transform="translate(-680.383 -200.007)"/><path class="d" d="M758.193,270.689l-15.119,30.236a4.4,4.4,0,0,1-3.961,2.45,4.429,4.429,0,0,1-3.963-6.41l13.312-26.621-4.706-2.355-8.173,16.347-8.171-16.344-4.706,2.355,9.936,19.872-2.2,4.395a9.615,9.615,0,0,0-.123,8.411,4.406,4.406,0,0,1-2.23-2.1l-15.119-30.233a10.257,10.257,0,0,1-1.071-4.538,10.153,10.153,0,0,1,10.141-10.142h27.081a10.14,10.14,0,0,1,9.07,14.677m-9.453,40.191-16.677,54.79a4.919,4.919,0,1,1-9.413-2.864l15.45-50.771-5.037-1.529-5.413,17.788-5.224-17.408v-9.519l.956,1.915a9.639,9.639,0,0,0,8.67,5.354,9.838,9.838,0,0,1,7.061,0,9.634,9.634,0,0,0,8.67-5.354l.957-1.918Zm-.282,51.837a4.979,4.979,0,0,1-9.483,3.036l-.749-2.249,5.207-17.114Zm.665-111.969H722.041a15.406,15.406,0,0,0-13.779,22.292l8.9,17.8v20.429l7.722,26.11-7.271,23.895a10.18,10.18,0,0,0,17.9,9.055,10.241,10.241,0,0,0,17.98-9.157l-7.316-23.777,7.716-25.357L754,290.846l8.9-17.8a15.588,15.588,0,0,0,1.622-6.89,15.422,15.422,0,0,0-15.4-15.405" transform="translate(-683.407 -188.666)"/><path class="e" d="M758.193,270.689l-15.119,30.236a4.4,4.4,0,0,1-3.961,2.45,4.429,4.429,0,0,1-3.963-6.41l13.312-26.621-4.706-2.355-8.173,16.347-8.171-16.344-4.706,2.355,9.936,19.872-2.2,4.395a9.615,9.615,0,0,0-.123,8.411,4.406,4.406,0,0,1-2.23-2.1l-15.119-30.233a10.257,10.257,0,0,1-1.071-4.538,10.153,10.153,0,0,1,10.141-10.142h27.081a10.14,10.14,0,0,1,9.07,14.677Zm-9.453,40.191-16.677,54.79a4.919,4.919,0,1,1-9.413-2.864l15.45-50.771-5.037-1.529-5.413,17.788-5.224-17.408v-9.519l.956,1.915a9.639,9.639,0,0,0,8.67,5.354,9.838,9.838,0,0,1,7.061,0,9.634,9.634,0,0,0,8.67-5.354l.957-1.918Zm-.282,51.837a4.979,4.979,0,0,1-9.483,3.036l-.749-2.249,5.207-17.114Zm.665-111.969H722.041a15.406,15.406,0,0,0-13.779,22.292l8.9,17.8v20.429l7.722,26.11-7.271,23.895a10.18,10.18,0,0,0,17.9,9.055,10.241,10.241,0,0,0,17.98-9.157l-7.316-23.777,7.716-25.357L754,290.846l8.9-17.8a15.588,15.588,0,0,0,1.622-6.89A15.422,15.422,0,0,0,749.122,250.748Z" transform="translate(-683.407 -188.666)"/></g></g></svg>