<svg xmlns="http://www.w3.org/2000/svg" xmlns:xlink="http://www.w3.org/1999/xlink" width="35" height="29.395" viewBox="0 0 35 29.395"><defs><style>.a{fill:none;}.b{clip-path:url(#a);}.c{fill:#85bc3c;}</style><clipPath id="a"><rect class="a" width="35" height="29.395"/></clipPath></defs><g class="b"><g transform="translate(0 6.152)"><g transform="translate(0 0)"><path class="c" d="M0,131v23.242H35V131Zm6.152,15.381a4.1,4.1,0,0,1,4.1-4.1,2.051,2.051,0,1,1,2.051-2.051,2.051,2.051,0,0,1-2.051,2.051,4.1,4.1,0,0,1,4.1,4.1ZM26.8,147.748H19.141V145.7H26.8Zm2.051-4.1H19.141V141.6h9.707Zm0-4.1H19.141v-2.051h9.707Z" transform="translate(0 -131)"/></g></g><g transform="translate(15.449)"><rect class="c" width="4.102" height="4.102"/></g></g></svg>