<svg xmlns="http://www.w3.org/2000/svg" xmlns:xlink="http://www.w3.org/1999/xlink" width="357" height="218" viewBox="0 0 357 218"><defs><style>.a{fill:none;stroke:#707070;}.b{clip-path:url(#a);}.c{fill:#c0da9a;}.d{fill:#727773;}.e{fill:#f4f9ed;}.f{fill:#85bc3c;}.g{fill:#fff;}</style><clipPath id="a"><rect class="a" width="357" height="218" transform="translate(0 1374)"/></clipPath></defs><g class="b" transform="translate(0 -1374)"><rect class="c" width="403.778" height="66.229" rx="33.114" transform="translate(-122.214 1571.666) rotate(-25)"/><rect class="d" width="168.938" height="42.062" rx="21.031" transform="translate(42.279 1553.851) rotate(-25)"/><rect class="e" width="102.052" height="25.513" rx="12.757" transform="translate(47.449 1453.614) rotate(-25)"/><circle class="e" cx="109" cy="109" r="109" transform="translate(139 1374)"/><circle class="c" cx="82.5" cy="82.5" r="82.5" transform="translate(166 1401)"/><g transform="translate(-6.649 47.75)"><g transform="translate(202.649 1385.25)"><path class="f" d="M742.258,307.431c28.814,0,52.174-22.594,52.174-50.464S771.073,206.5,742.258,206.5s-52.177,22.592-52.177,50.464,23.36,50.464,52.177,50.464" transform="translate(-690.081 -206.504)"/><g transform="translate(20.333 16.417)"><path class="g" d="M55.617,13.781a7.381,7.381,0,0,0-7.383,7.383v2.461h-8.9C42.3,18.554,43.8,14.751,43.8,12.3a12.3,12.3,0,1,0-24.609,0c0,2.447,1.5,6.25,4.468,11.32h-8.9V21.164A7.383,7.383,0,1,0,0,21.164v6.891a1.23,1.23,0,0,0,2.461,0V21.164a4.922,4.922,0,0,1,9.844,0V50.119a7.367,7.367,0,0,0-9.844,0V28.108a1.23,1.23,0,1,0-2.461,0V55.617A7.585,7.585,0,0,0,7.734,63H55.617A7.391,7.391,0,0,0,63,55.617V21.164a7.391,7.391,0,0,0-7.383-7.383ZM50.7,21.164a4.922,4.922,0,1,1,9.844,0V50.085a7.191,7.191,0,0,0-2.975-1.6A7.425,7.425,0,0,0,50.7,50.113V21.164ZM48.234,38.391H32.484l-12.919-12.3h5.59c2.686,4.291,5.332,7.837,5.36,7.874a1.231,1.231,0,0,0,1.971,0c.027-.037,2.674-3.583,5.36-7.874H48.234ZM31.5,2.461A9.855,9.855,0,0,1,41.344,12.3c0,4.569-7.207,15.133-9.844,18.825-2.678-3.75-9.844-14.3-9.844-18.825A9.855,9.855,0,0,1,31.5,2.461ZM2.461,55.617a4.922,4.922,0,0,1,9.844,0,1.23,1.23,0,1,0,2.461,0V35.109L27.255,47,13.043,60.539H7.734A5.11,5.11,0,0,1,2.461,55.617ZM29.887,47.9a1.23,1.23,0,0,0,0-1.782l-15.122-14.4V26.086H16L31.144,40.512a1.231,1.231,0,0,0,.848.339H48.234v4.922H38.883a1.23,1.23,0,0,0-.87.36L23.607,60.539h-7Zm25.73,12.644H27.088l12.3-12.3h8.842v7.383a1.23,1.23,0,1,0,2.461,0,4.934,4.934,0,0,1,6.253-4.749,4.846,4.846,0,0,1,3.59,4.749,4.928,4.928,0,0,1-4.922,4.922Zm0,0"/><path class="g" d="M212.648,63.3A6.648,6.648,0,1,0,206,56.648,6.656,6.656,0,0,0,212.648,63.3Zm0-10.637a3.989,3.989,0,1,1-3.989,3.989A3.993,3.993,0,0,1,212.648,52.659Zm0,0" transform="translate(-181.148 -43.352)"/></g></g></g></g></svg>