<svg xmlns="http://www.w3.org/2000/svg" xmlns:xlink="http://www.w3.org/1999/xlink" width="30" height="30" viewBox="0 0 30 30"><defs><style>.a{fill:none;}.b{clip-path:url(#a);}.c{fill:#85bc3c;}.d{fill:#fff;}</style><clipPath id="a"><rect class="a" width="30" height="30"/></clipPath></defs><g class="b"><path class="c" d="M15,0a15,15,0,1,0,8.887,27.084.524.524,0,0,1-.357-.174l-2.457-2.746L19.75,26.2l-1.092-5.519,5.619,1.748-2.418,1.039,2.457,2.746a.523.523,0,0,1,.123.45A15,15,0,0,0,15,0Z" transform="translate(0 -0.001)"/><g transform="translate(3.727 12.536)"><path class="d" d="M62.983,209.066l.138.764.015.005.168-.769,1.111-3.526h.764l1.111,3.526.178.836h.015l.173-.836.892-3.526h.938l-1.6,5.513h-.764l-1.09-3.4-.239-.983h-.015l-.229.983-1.07,3.4h-.769l-1.6-5.513h.943Z" transform="translate(-61.108 -205.54)"/><path class="d" d="M192.461,209.066l.138.764.015.005.168-.769,1.111-3.526h.764l1.111,3.526.178.836h.015l.173-.836.892-3.526h.937l-1.6,5.513H195.6l-1.09-3.4-.239-.983h-.015l-.229.983-1.07,3.4h-.769l-1.6-5.513h.943Z" transform="translate(-182.689 -205.54)"/><path class="d" d="M321.944,209.066l.138.764.015.005.168-.769,1.111-3.526h.764l1.111,3.526.178.836h.015l.173-.836.892-3.526h.937l-1.6,5.513h-.764l-1.09-3.4-.239-.983h-.015l-.229.983-1.07,3.4h-.769l-1.6-5.513h.943Z" transform="translate(-304.274 -205.54)"/></g></g></svg>