<svg xmlns="http://www.w3.org/2000/svg" xmlns:xlink="http://www.w3.org/1999/xlink" width="20.564" height="29.703" viewBox="0 0 20.564 29.703"><defs><style>.a{fill:none;}.b{clip-path:url(#a);}.c{fill:#85bc3c;}</style><clipPath id="a"><rect class="a" width="20.564" height="29.703"/></clipPath></defs><g class="b"><path class="c" d="M151.891,20.563a5.728,5.728,0,0,0,5.712-5.712V5.712a5.5,5.5,0,0,0-1.678-4.034,5.688,5.688,0,0,0-8.068,0,5.5,5.5,0,0,0-1.678,4.034v9.139a5.728,5.728,0,0,0,5.712,5.712Z" transform="translate(-141.609 0)"/><path class="c" d="M93.311,183.063a1.142,1.142,0,0,0-1.945.8v2.285a8,8,0,0,1-15.994,0v-2.285a1.143,1.143,0,0,0-2.285,0v2.285a10.281,10.281,0,0,0,9.139,10.21v2.357h-4.57a1.143,1.143,0,0,0,0,2.285H89.081a1.143,1.143,0,0,0,0-2.285H84.512v-2.357a10.282,10.282,0,0,0,9.14-10.21v-2.285A1.1,1.1,0,0,0,93.311,183.063Z" transform="translate(-73.087 -171.3)"/></g></svg>