<svg xmlns="http://www.w3.org/2000/svg" xmlns:xlink="http://www.w3.org/1999/xlink" width="35.649" height="30" viewBox="0 0 35.649 30"><defs><style>.a{fill:none;}.b{clip-path:url(#a);}.c{fill:#85bc3c;}</style><clipPath id="a"><rect class="a" width="35.649" height="30"/></clipPath></defs><g class="b"><path class="c" d="M21.512,11.5a6.478,6.478,0,0,1,3.015,4.812A5.226,5.226,0,1,0,21.512,11.5ZM18.087,22.2a5.228,5.228,0,1,0-5.229-5.228A5.228,5.228,0,0,0,18.087,22.2Zm2.218.356H15.869a6.7,6.7,0,0,0-6.694,6.695v5.425l.014.085.374.117a30.471,30.471,0,0,0,9.1,1.468,18.686,18.686,0,0,0,7.947-1.492l.349-.177H27V29.253A6.7,6.7,0,0,0,20.305,22.558Zm8.65-5.4h-4.4a6.443,6.443,0,0,1-1.989,4.488,7.954,7.954,0,0,1,5.682,7.612v1.672a18.015,18.015,0,0,0,7.016-1.474l.349-.177h.037V23.855A6.7,6.7,0,0,0,28.955,17.161ZM8.913,16.805A5.193,5.193,0,0,0,11.694,16a6.47,6.47,0,0,1,2.432-4.127c.005-.1.015-.195.015-.294a5.228,5.228,0,1,0-5.227,5.227Zm4.7,4.844a6.447,6.447,0,0,1-1.987-4.463c-.163-.012-.325-.025-.491-.025H6.694A6.7,6.7,0,0,0,0,23.855v5.426l.014.084.374.118A31.386,31.386,0,0,0,7.926,30.9V29.261A7.956,7.956,0,0,1,13.609,21.649Z" transform="translate(0 -6.348)"/></g></svg>