<svg xmlns="http://www.w3.org/2000/svg" width="19.25" height="15.292" viewBox="0 0 19.25 15.292"><defs><style>.a{fill:#fff;}</style></defs><g transform="translate(0 -9.564)"><path class="a" d="M9.631,23.211a.874.874,0,0,1-1.432.673L3.42,19.924H.874A.874.874,0,0,1,0,19.05V15.567a.874.874,0,0,1,.874-.874H3.42L8.2,10.733a.875.875,0,0,1,1.432.673V23.211Zm3.36-1.366-.063,0a.873.873,0,0,1-.618-.256l-.117-.117a.874.874,0,0,1-.084-1.139,5.083,5.083,0,0,0-.134-6.229.874.874,0,0,1,.06-1.169l.117-.117a.855.855,0,0,1,.662-.255.875.875,0,0,1,.633.32,7,7,0,0,1,.182,8.611A.875.875,0,0,1,12.99,21.845Zm3.614,2.7a.875.875,0,0,1-.631.309h-.037a.874.874,0,0,1-.618-.256l-.115-.115a.874.874,0,0,1-.051-1.181A9.316,9.316,0,0,0,15,11.133a.874.874,0,0,1,.035-1.2l.115-.115a.851.851,0,0,1,.645-.257.874.874,0,0,1,.628.293A11.224,11.224,0,0,1,16.6,24.547Z"/></g></svg>