<svg xmlns="http://www.w3.org/2000/svg" width="8.934" height="11.979" viewBox="0 0 8.934 11.979">
  <g id="upload_blue" transform="translate(-7.499 0)">
    <path id="Trazado_2131" data-name="Trazado 2131" d="M18.682,2.44a.2.2,0,0,0,.144-.059L20.513.693V7.918a.2.2,0,1,0,.406,0V.693L22.6,2.373a.2.2,0,1,0,.287-.287L20.86.06a.2.2,0,0,0-.066-.044.2.2,0,0,0-.221.044L18.538,2.094a.2.2,0,0,0,.144.347Z" transform="translate(-8.751 0)" fill="#149ee6"/>
    <path id="Trazado_2132" data-name="Trazado 2132" d="M14.518,16a.2.2,0,0,0,0,.406h1.508v7.918H7.905V16.405H9.413a.2.2,0,0,0,0-.406H7.5v8.73h8.933V16Z" transform="translate(0 -12.75)" fill="#149ee6"/>
  </g>
</svg>
